<?xml version="1.0" encoding="UTF-8" standalone="no"?>
<svg xmlns="http://www.w3.org/2000/svg" viewBox="0 0 64 64">
  <defs>
    <style>.cls-1 {
      fill: #00cec9;
    }</style>
  </defs>
  <title>Asset 41</title>
  <g id="Layer_2" data-name="Layer 2">
    <g id="Layer_1-2" data-name="Layer 1">
      <path class="cls-1"
            d="M33.71,52.24,52.49,33.52a2.67,2.67,0,0,0-3.76-3.78L34.61,43.81V2.67a2.67,2.67,0,1,0-5.33,0V44L15.17,29.75a2.67,2.67,0,0,0-3.79,3.76L29.93,52.23a2.67,2.67,0,0,0,3.78,0Z"/>
      <path class="cls-1"
            d="M56,64H8a8,8,0,0,1-8-8V37.33a2.67,2.67,0,0,1,5.33,0V56A2.67,2.67,0,0,0,8,58.67H56A2.67,2.67,0,0,0,58.67,56V37.33a2.67,2.67,0,0,1,5.33,0V56A8,8,0,0,1,56,64Z"/>
    </g>
  </g>
</svg>
